<?xml version="1.0" encoding="utf-8"?>
<!-- Generator: Adobe Illustrator 23.0.1, SVG Export Plug-In . SVG Version: 6.00 Build 0)  -->
<svg version="1.1" id="Layer_1" xmlns="http://www.w3.org/2000/svg" xmlns:xlink="http://www.w3.org/1999/xlink" x="0px" y="0px"
	 viewBox="0 0 260.1 256.1" style="enable-background:new 0 0 260.1 256.1;" xml:space="preserve">
<style type="text/css">
	.st0{fill:#094067;stroke:#094067;stroke-width:4;stroke-miterlimit:10;}
	.st1{fill:#0EA9C8;stroke:#094067;stroke-width:4;stroke-miterlimit:10;}
	.st2{fill:#0B7482;stroke:#094067;stroke-width:4;stroke-miterlimit:10;}
	.st3{fill:#FFFFFE;stroke:#094067;stroke-width:4;stroke-miterlimit:10;}
	.st4{fill:#011638;stroke:#094067;stroke-width:4;stroke-miterlimit:10;}
</style>
<g>
	<g>
		<path class="st0" d="M248.3,95.1c-4.1,0-8.2-0.2-12.3-0.1c-3,0.1-4.2-0.9-4.1-4c0.2-5.7,0.2-19,0.2-19c0.3-2.6,2-3.7,4-5.4
			c2.5-2.1,3-4.2,2.9-7c-0.1-3.8,0-7.6,0-11.8c-8.3,2.3-16.1,4.5-24,6.6c-10,2.7-20.1,5.1-30.1,8c-16.4,4.6-30.4,9-46.9,13.5
			c-2.9,0.8-8.8,0.8-11.9,0C104.9,70.1,83.7,64,62.5,58c-15.8-4.4-46.6-13.4-46.6-13.4l-5.6-1.9l8.5-2.5c16.2-4.5,32.5-9,48.8-13.5
			c8.1-2.2,16.7-4.5,33.8-9.4c12.1-3.4,22.1-6.3,29.2-8.3l15.8,3.8l28.1,7.5L204,28l34.8,10c0,0,8.9,2.8,13.4,4.2v1.4
			c-8.9,1.6-7.6,7.8-7.6,7.8s1.7,13,3.9,14.8c1.2,1,3.3,2.6,3.4,6.2c0.2,6.5,0,13-0.1,19.5c0,0.3,0,1.3-0.7,2.1
			C249.9,95.2,248.4,95.1,248.3,95.1z"/>
		<path class="st1" d="M247.8,92.4l2,7c0,0,2.1,8,2.2,10.6c0.3,3,0,7.4-0.8,10.5c-3.4,15.3-4.7,30.7-2.2,46.2c0.9,5.4,2,10.8,3,16.2
			c0.4,2.3,1.3,7.1,1.5,10.2c0.5,6.1-0.4,9.1-1.7,12.7c-1.5,3.4-4.4,8.2-9.2,12.7c-10.3,9.8-24.2,13.4-39,15.1
			c-21.2,2.4-39.9-3-54.9-18.7c-11.6-12.2-15.7-26.4-10.9-43.1c4.5-15.4,11.7-27.7,21.7-37c4.1-3.8,19.2-17.5,40.5-19.6
			c8.6-0.8,12.8-0.3,20-1.8C234.2,110.7,241.6,100.6,247.8,92.4z M156,179.1c-0.8,22.1,17.9,40.2,40.1,39.8
			c22.7-0.5,39.3-16.5,39.5-39.5c0.2-23.1-17.1-40-40-40.2C173.8,139,155.2,157.1,156,179.1z"/>
		<path class="st1" d="M40.8,113.6c7.3,1.5,11.4,1,20,1.8c21.3,2,36.4,15.8,40.5,19.6c10,9.3,17.2,21.6,21.7,37
			c4.8,16.6,0.7,30.9-10.9,43.1c-14.9,15.7-33.7,21.2-54.9,18.7c-14.8-1.7-28.7-5.4-39-15.1c-4.8-4.5-7.7-9.3-9.2-12.7
			c-1.3-3.6-2.2-6.5-1.7-12.7c0.2-3.1,1.1-7.9,1.5-10.2c1-5.4,2.1-10.8,3-16.2c2.5-15.6,1.2-31-2.2-46.2c-0.7-3.2-1.1-7.6-0.8-10.5
			s2.3-10.8,2.3-10.8l2-7C19.4,100.6,26.7,110.7,40.8,113.6z M65.4,139.2c-22.9,0.2-40.2,17.1-40,40.2s16.8,39.1,39.5,39.5
			c22.2,0.5,40.9-17.7,40.1-39.8C105.8,157.1,87.2,139,65.4,139.2z"/>
		<path class="st2" d="M130,253.3c-4.1-7.3-8.3-14.6-12.1-22c-0.6-1.2-0.6-3.5,0.4-4.5c3.7-4,8-7.8,12.2-11.8
			c4.4,4,8.7,7.8,12.8,11.8c0.7,0.7,1,2.8,0.5,3.7c-4.1,7.7-8.5,15.2-12.7,22.8C130.6,253.7,130.3,253.6,130,253.3z"/>
		<path class="st0" d="M130.7,152.4c-2.6-6.4-11.5-25.7-33.3-38.5c-19.4-11.4-38-11.2-45.2-10.7v-1.8c0-11.6,0-23.3,0-35.6
			c7.3,2,14.2,4,21.1,5.8c17.8,4.9,35.7,9.5,53.4,14.8c3.6,1.4,7.9,1.9,12.1-0.1L190.5,70l18.6-5.9l0.1,35.4c0,1.2,0,2.5,0,3.7
			c-8.8,0.5-23.4,2.5-39.2,10.8C147,126,135.2,144.3,130.7,152.4z"/>
		<path id="XMLID_1_" class="st3" d="M235.6,179c0,3.5-0.2,17.3-11,28.4c-13.3,13.6-31.5,11.5-34,11.2c-3.7-0.5-15.9-2.6-25.3-13.5
			c-12.1-14.1-9.4-31.1-9-33.2c0.5-2.7,3.3-16.8,16.6-25.9c11.4-7.8,23.3-7.1,27.9-6.6c3.3,0.4,15.1,2.1,24.5,12.2
			C235.3,162.5,235.6,175.5,235.6,179z"/>
		<path id="XMLID_2_" class="st3" d="M25.3,179c0,3.5,0.2,17.3,11,28.4c13.3,13.6,31.5,11.5,34,11.2c3.7-0.5,15.9-2.6,25.3-13.5
			c12.1-14.1,9.4-31.1,9-33.2c-0.5-2.7-3.3-16.8-16.6-25.9c-11.4-7.8-23.3-7.1-27.9-6.6c-3.3,0.4-15.1,2.1-24.5,12.2
			C25.6,162.5,25.3,175.5,25.3,179z"/>
		<path class="st4" d="M221.6,172.9c-4.5,3.1-8.5,6.7-14.2,2.7c-2.3-1.6-2-8.6-1.1-9.9c1.5-2,4.9-4.7,11.6-3.1
			c-2.5-11.3-17.1-15.2-26.6-12.6c-15.4,4.2-21.3,17.3-18.6,30.7c2.9,14.3,13.6,21.9,28.7,20.1C212.8,199.6,223.5,187.5,221.6,172.9
			z"/>
		<path class="st4" d="M38.6,174c4.8,3.3,9.1,7,15.2,2.8c2.5-1.7,2.1-9,1.2-10.4c-1.6-2.1-5.3-4.9-12.4-3.3
			c2.7-11.9,18.3-16,28.4-13.2c16.5,4.4,22.8,18.1,19.9,32.2c-3.1,14.9-14.6,23-30.7,21C47.9,202,36.5,189.4,38.6,174z"/>
	</g>
</g>
</svg>
